<mxfile host="65bd71144e" pages="2">
    <diagram id="43eCItG674Y-arAk0mU8" name="ER図">
        <mxGraphModel dx="879" dy="560" grid="1" gridSize="10" guides="1" tooltips="1" connect="1" arrows="1" fold="1" page="1" pageScale="1" pageWidth="1169" pageHeight="827" math="0" shadow="0">
            <root>
                <mxCell id="0"/>
                <mxCell id="1" parent="0"/>
                <mxCell id="ptqmkXSqPBtZJswI_MHi-1" value="users" style="swimlane;fontStyle=0;childLayout=stackLayout;horizontal=1;startSize=30;horizontalStack=0;resizeParent=1;resizeParentMax=0;resizeLast=0;collapsible=1;marginBottom=0;whiteSpace=wrap;html=1;" parent="1" vertex="1">
                    <mxGeometry x="585" y="230" width="140" height="270" as="geometry"/>
                </mxCell>
                <mxCell id="ptqmkXSqPBtZJswI_MHi-2" value="nickname" style="text;strokeColor=default;fillColor=none;align=left;verticalAlign=middle;spacingLeft=4;spacingRight=4;overflow=hidden;points=[[0,0.5],[1,0.5]];portConstraint=eastwest;rotatable=0;whiteSpace=wrap;html=1;" parent="ptqmkXSqPBtZJswI_MHi-1" vertex="1">
                    <mxGeometry y="30" width="140" height="30" as="geometry"/>
                </mxCell>
                <mxCell id="ptqmkXSqPBtZJswI_MHi-3" value="email" style="text;strokeColor=default;fillColor=none;align=left;verticalAlign=middle;spacingLeft=4;spacingRight=4;overflow=hidden;points=[[0,0.5],[1,0.5]];portConstraint=eastwest;rotatable=0;whiteSpace=wrap;html=1;" parent="ptqmkXSqPBtZJswI_MHi-1" vertex="1">
                    <mxGeometry y="60" width="140" height="30" as="geometry"/>
                </mxCell>
                <mxCell id="ptqmkXSqPBtZJswI_MHi-4" value="password" style="text;strokeColor=default;fillColor=none;align=left;verticalAlign=middle;spacingLeft=4;spacingRight=4;overflow=hidden;points=[[0,0.5],[1,0.5]];portConstraint=eastwest;rotatable=0;whiteSpace=wrap;html=1;" parent="ptqmkXSqPBtZJswI_MHi-1" vertex="1">
                    <mxGeometry y="90" width="140" height="30" as="geometry"/>
                </mxCell>
                <mxCell id="ptqmkXSqPBtZJswI_MHi-5" value="firstname" style="text;strokeColor=default;fillColor=none;align=left;verticalAlign=middle;spacingLeft=4;spacingRight=4;overflow=hidden;points=[[0,0.5],[1,0.5]];portConstraint=eastwest;rotatable=0;whiteSpace=wrap;html=1;" parent="ptqmkXSqPBtZJswI_MHi-1" vertex="1">
                    <mxGeometry y="120" width="140" height="30" as="geometry"/>
                </mxCell>
                <mxCell id="ptqmkXSqPBtZJswI_MHi-6" value="lastname" style="text;strokeColor=default;fillColor=none;align=left;verticalAlign=middle;spacingLeft=4;spacingRight=4;overflow=hidden;points=[[0,0.5],[1,0.5]];portConstraint=eastwest;rotatable=0;whiteSpace=wrap;html=1;" parent="ptqmkXSqPBtZJswI_MHi-1" vertex="1">
                    <mxGeometry y="150" width="140" height="30" as="geometry"/>
                </mxCell>
                <mxCell id="ptqmkXSqPBtZJswI_MHi-7" value="firstnamekana" style="text;strokeColor=default;fillColor=none;align=left;verticalAlign=middle;spacingLeft=4;spacingRight=4;overflow=hidden;points=[[0,0.5],[1,0.5]];portConstraint=eastwest;rotatable=0;whiteSpace=wrap;html=1;" parent="ptqmkXSqPBtZJswI_MHi-1" vertex="1">
                    <mxGeometry y="180" width="140" height="30" as="geometry"/>
                </mxCell>
                <mxCell id="ptqmkXSqPBtZJswI_MHi-8" value="lastnamekana" style="text;strokeColor=default;fillColor=none;align=left;verticalAlign=middle;spacingLeft=4;spacingRight=4;overflow=hidden;points=[[0,0.5],[1,0.5]];portConstraint=eastwest;rotatable=0;whiteSpace=wrap;html=1;" parent="ptqmkXSqPBtZJswI_MHi-1" vertex="1">
                    <mxGeometry y="210" width="140" height="30" as="geometry"/>
                </mxCell>
                <mxCell id="ptqmkXSqPBtZJswI_MHi-9" value="birthday" style="text;strokeColor=default;fillColor=none;align=left;verticalAlign=middle;spacingLeft=4;spacingRight=4;overflow=hidden;points=[[0,0.5],[1,0.5]];portConstraint=eastwest;rotatable=0;whiteSpace=wrap;html=1;" parent="ptqmkXSqPBtZJswI_MHi-1" vertex="1">
                    <mxGeometry y="240" width="140" height="30" as="geometry"/>
                </mxCell>
                <mxCell id="ptqmkXSqPBtZJswI_MHi-10" value="items" style="swimlane;fontStyle=0;childLayout=stackLayout;horizontal=1;startSize=30;horizontalStack=0;resizeParent=1;resizeParentMax=0;resizeLast=0;collapsible=1;marginBottom=0;whiteSpace=wrap;html=1;" parent="1" vertex="1">
                    <mxGeometry x="280" y="230" width="140" height="270" as="geometry"/>
                </mxCell>
                <mxCell id="ptqmkXSqPBtZJswI_MHi-13" value="user" style="text;strokeColor=default;fillColor=none;align=left;verticalAlign=middle;spacingLeft=4;spacingRight=4;overflow=hidden;points=[[0,0.5],[1,0.5]];portConstraint=eastwest;rotatable=0;whiteSpace=wrap;html=1;" parent="ptqmkXSqPBtZJswI_MHi-10" vertex="1">
                    <mxGeometry y="30" width="140" height="30" as="geometry"/>
                </mxCell>
                <mxCell id="ptqmkXSqPBtZJswI_MHi-11" value="title" style="text;strokeColor=default;fillColor=none;align=left;verticalAlign=middle;spacingLeft=4;spacingRight=4;overflow=hidden;points=[[0,0.5],[1,0.5]];portConstraint=eastwest;rotatable=0;whiteSpace=wrap;html=1;" parent="ptqmkXSqPBtZJswI_MHi-10" vertex="1">
                    <mxGeometry y="60" width="140" height="30" as="geometry"/>
                </mxCell>
                <mxCell id="7" value="introduction" style="text;strokeColor=default;fillColor=none;align=left;verticalAlign=middle;spacingLeft=4;spacingRight=4;overflow=hidden;points=[[0,0.5],[1,0.5]];portConstraint=eastwest;rotatable=0;whiteSpace=wrap;html=1;" vertex="1" parent="ptqmkXSqPBtZJswI_MHi-10">
                    <mxGeometry y="90" width="140" height="30" as="geometry"/>
                </mxCell>
                <mxCell id="ptqmkXSqPBtZJswI_MHi-16" value="where_to_buy_id" style="text;strokeColor=default;fillColor=none;align=left;verticalAlign=middle;spacingLeft=4;spacingRight=4;overflow=hidden;points=[[0,0.5],[1,0.5]];portConstraint=eastwest;rotatable=0;whiteSpace=wrap;html=1;" parent="ptqmkXSqPBtZJswI_MHi-10" vertex="1">
                    <mxGeometry y="120" width="140" height="30" as="geometry"/>
                </mxCell>
                <mxCell id="ptqmkXSqPBtZJswI_MHi-18" value="budgets_id" style="text;strokeColor=none;fillColor=none;align=left;verticalAlign=middle;spacingLeft=4;spacingRight=4;overflow=hidden;points=[[0,0.5],[1,0.5]];portConstraint=eastwest;rotatable=0;whiteSpace=wrap;html=1;" parent="ptqmkXSqPBtZJswI_MHi-10" vertex="1">
                    <mxGeometry y="150" width="140" height="30" as="geometry"/>
                </mxCell>
                <mxCell id="ptqmkXSqPBtZJswI_MHi-19" value="image" style="text;strokeColor=default;fillColor=none;align=left;verticalAlign=middle;spacingLeft=4;spacingRight=4;overflow=hidden;points=[[0,0.5],[1,0.5]];portConstraint=eastwest;rotatable=0;whiteSpace=wrap;html=1;" parent="ptqmkXSqPBtZJswI_MHi-10" vertex="1">
                    <mxGeometry y="180" width="140" height="30" as="geometry"/>
                </mxCell>
                <mxCell id="ptqmkXSqPBtZJswI_MHi-14" value="category_id" style="text;strokeColor=default;fillColor=none;align=left;verticalAlign=middle;spacingLeft=4;spacingRight=4;overflow=hidden;points=[[0,0.5],[1,0.5]];portConstraint=eastwest;rotatable=0;whiteSpace=wrap;html=1;" parent="ptqmkXSqPBtZJswI_MHi-10" vertex="1">
                    <mxGeometry y="210" width="140" height="30" as="geometry"/>
                </mxCell>
                <mxCell id="ptqmkXSqPBtZJswI_MHi-20" value="four_season_id" style="text;strokeColor=none;fillColor=none;align=left;verticalAlign=middle;spacingLeft=4;spacingRight=4;overflow=hidden;points=[[0,0.5],[1,0.5]];portConstraint=eastwest;rotatable=0;whiteSpace=wrap;html=1;" parent="ptqmkXSqPBtZJswI_MHi-10" vertex="1">
                    <mxGeometry y="240" width="140" height="30" as="geometry"/>
                </mxCell>
                <mxCell id="ptqmkXSqPBtZJswI_MHi-21" value="categories" style="swimlane;fontStyle=0;childLayout=stackLayout;horizontal=1;startSize=30;horizontalStack=0;resizeParent=1;resizeParentMax=0;resizeLast=0;collapsible=1;marginBottom=0;whiteSpace=wrap;html=1;" parent="1" vertex="1">
                    <mxGeometry x="40" y="140" width="140" height="60" as="geometry"/>
                </mxCell>
                <mxCell id="ptqmkXSqPBtZJswI_MHi-22" value="genre" style="text;strokeColor=none;fillColor=none;align=left;verticalAlign=middle;spacingLeft=4;spacingRight=4;overflow=hidden;points=[[0,0.5],[1,0.5]];portConstraint=eastwest;rotatable=0;whiteSpace=wrap;html=1;" parent="ptqmkXSqPBtZJswI_MHi-21" vertex="1">
                    <mxGeometry y="30" width="140" height="30" as="geometry"/>
                </mxCell>
                <mxCell id="ptqmkXSqPBtZJswI_MHi-25" value="where_to_buy" style="swimlane;fontStyle=0;childLayout=stackLayout;horizontal=1;startSize=30;horizontalStack=0;resizeParent=1;resizeParentMax=0;resizeLast=0;collapsible=1;marginBottom=0;whiteSpace=wrap;html=1;" parent="1" vertex="1">
                    <mxGeometry x="40" y="240" width="140" height="60" as="geometry"/>
                </mxCell>
                <mxCell id="ptqmkXSqPBtZJswI_MHi-26" value="&lt;span style=&quot;text-align: center;&quot;&gt;buy_prefectures&lt;/span&gt;" style="text;strokeColor=none;fillColor=none;align=left;verticalAlign=middle;spacingLeft=4;spacingRight=4;overflow=hidden;points=[[0,0.5],[1,0.5]];portConstraint=eastwest;rotatable=0;whiteSpace=wrap;html=1;" parent="ptqmkXSqPBtZJswI_MHi-25" vertex="1">
                    <mxGeometry y="30" width="140" height="30" as="geometry"/>
                </mxCell>
                <mxCell id="ptqmkXSqPBtZJswI_MHi-28" value="budgets" style="swimlane;fontStyle=0;childLayout=stackLayout;horizontal=1;startSize=30;horizontalStack=0;resizeParent=1;resizeParentMax=0;resizeLast=0;collapsible=1;marginBottom=0;whiteSpace=wrap;html=1;" parent="1" vertex="1">
                    <mxGeometry x="40" y="350" width="140" height="60" as="geometry"/>
                </mxCell>
                <mxCell id="ptqmkXSqPBtZJswI_MHi-29" value="&lt;span style=&quot;text-align: center;&quot;&gt;price&lt;/span&gt;" style="text;strokeColor=none;fillColor=none;align=left;verticalAlign=middle;spacingLeft=4;spacingRight=4;overflow=hidden;points=[[0,0.5],[1,0.5]];portConstraint=eastwest;rotatable=0;whiteSpace=wrap;html=1;" parent="ptqmkXSqPBtZJswI_MHi-28" vertex="1">
                    <mxGeometry y="30" width="140" height="30" as="geometry"/>
                </mxCell>
                <mxCell id="ptqmkXSqPBtZJswI_MHi-32" value="four_season" style="swimlane;fontStyle=0;childLayout=stackLayout;horizontal=1;startSize=30;horizontalStack=0;resizeParent=1;resizeParentMax=0;resizeLast=0;collapsible=1;marginBottom=0;whiteSpace=wrap;html=1;" parent="1" vertex="1">
                    <mxGeometry x="40" y="450" width="140" height="60" as="geometry"/>
                </mxCell>
                <mxCell id="ptqmkXSqPBtZJswI_MHi-33" value="&lt;span style=&quot;text-align: center;&quot;&gt;season&lt;/span&gt;" style="text;strokeColor=none;fillColor=none;align=left;verticalAlign=middle;spacingLeft=4;spacingRight=4;overflow=hidden;points=[[0,0.5],[1,0.5]];portConstraint=eastwest;rotatable=0;whiteSpace=wrap;html=1;" parent="ptqmkXSqPBtZJswI_MHi-32" vertex="1">
                    <mxGeometry y="30" width="140" height="30" as="geometry"/>
                </mxCell>
                <mxCell id="ptqmkXSqPBtZJswI_MHi-35" style="edgeStyle=orthogonalEdgeStyle;rounded=0;orthogonalLoop=1;jettySize=auto;html=1;exitX=1;exitY=0.5;exitDx=0;exitDy=0;entryX=0;entryY=0.5;entryDx=0;entryDy=0;startArrow=ERone;startFill=0;endArrow=none;endFill=0;" parent="1" source="ptqmkXSqPBtZJswI_MHi-33" target="ptqmkXSqPBtZJswI_MHi-14" edge="1">
                    <mxGeometry relative="1" as="geometry"/>
                </mxCell>
                <mxCell id="ptqmkXSqPBtZJswI_MHi-37" style="edgeStyle=orthogonalEdgeStyle;rounded=0;orthogonalLoop=1;jettySize=auto;html=1;exitX=1;exitY=0.5;exitDx=0;exitDy=0;startArrow=ERone;startFill=0;endArrow=none;endFill=0;" parent="1" edge="1">
                    <mxGeometry relative="1" as="geometry">
                        <mxPoint x="180" y="495" as="sourcePoint"/>
                        <mxPoint x="180" y="495" as="targetPoint"/>
                    </mxGeometry>
                </mxCell>
                <mxCell id="ptqmkXSqPBtZJswI_MHi-39" style="edgeStyle=orthogonalEdgeStyle;rounded=0;orthogonalLoop=1;jettySize=auto;html=1;exitX=1;exitY=0.5;exitDx=0;exitDy=0;entryX=0;entryY=0.5;entryDx=0;entryDy=0;startArrow=ERone;startFill=0;endArrow=none;endFill=0;" parent="1" source="ptqmkXSqPBtZJswI_MHi-29" target="ptqmkXSqPBtZJswI_MHi-14" edge="1">
                    <mxGeometry relative="1" as="geometry"/>
                </mxCell>
                <mxCell id="ptqmkXSqPBtZJswI_MHi-40" style="edgeStyle=orthogonalEdgeStyle;rounded=0;orthogonalLoop=1;jettySize=auto;html=1;exitX=1;exitY=0.5;exitDx=0;exitDy=0;startArrow=ERone;startFill=0;endArrow=none;endFill=0;" parent="1" source="ptqmkXSqPBtZJswI_MHi-26" target="ptqmkXSqPBtZJswI_MHi-14" edge="1">
                    <mxGeometry relative="1" as="geometry"/>
                </mxCell>
                <mxCell id="ptqmkXSqPBtZJswI_MHi-41" style="edgeStyle=orthogonalEdgeStyle;rounded=0;orthogonalLoop=1;jettySize=auto;html=1;exitX=1;exitY=0.5;exitDx=0;exitDy=0;entryX=0;entryY=0.5;entryDx=0;entryDy=0;startArrow=ERone;startFill=0;endArrow=ERmany;endFill=0;" parent="1" source="ptqmkXSqPBtZJswI_MHi-22" target="ptqmkXSqPBtZJswI_MHi-14" edge="1">
                    <mxGeometry relative="1" as="geometry"/>
                </mxCell>
                <mxCell id="ptqmkXSqPBtZJswI_MHi-42" style="edgeStyle=orthogonalEdgeStyle;rounded=0;orthogonalLoop=1;jettySize=auto;html=1;startArrow=none;startFill=0;endArrow=ERone;endFill=0;entryX=0.007;entryY=0.033;entryDx=0;entryDy=0;entryPerimeter=0;" parent="1" target="ptqmkXSqPBtZJswI_MHi-5" edge="1">
                    <mxGeometry relative="1" as="geometry">
                        <mxPoint x="510" y="350" as="sourcePoint"/>
                        <mxPoint x="580" y="350" as="targetPoint"/>
                        <Array as="points">
                            <mxPoint x="580" y="350"/>
                            <mxPoint x="580" y="351"/>
                        </Array>
                    </mxGeometry>
                </mxCell>
                <mxCell id="ptqmkXSqPBtZJswI_MHi-43" value="favorites" style="swimlane;fontStyle=0;childLayout=stackLayout;horizontal=1;startSize=30;horizontalStack=0;resizeParent=1;resizeParentMax=0;resizeLast=0;collapsible=1;marginBottom=0;whiteSpace=wrap;html=1;" parent="1" vertex="1">
                    <mxGeometry x="440" y="110" width="140" height="90" as="geometry"/>
                </mxCell>
                <mxCell id="ptqmkXSqPBtZJswI_MHi-44" value="item_id" style="text;strokeColor=default;fillColor=none;align=left;verticalAlign=middle;spacingLeft=4;spacingRight=4;overflow=hidden;points=[[0,0.5],[1,0.5]];portConstraint=eastwest;rotatable=0;whiteSpace=wrap;html=1;" parent="ptqmkXSqPBtZJswI_MHi-43" vertex="1">
                    <mxGeometry y="30" width="140" height="30" as="geometry"/>
                </mxCell>
                <mxCell id="ptqmkXSqPBtZJswI_MHi-45" value="user_id" style="text;strokeColor=none;fillColor=none;align=left;verticalAlign=middle;spacingLeft=4;spacingRight=4;overflow=hidden;points=[[0,0.5],[1,0.5]];portConstraint=eastwest;rotatable=0;whiteSpace=wrap;html=1;" parent="ptqmkXSqPBtZJswI_MHi-43" vertex="1">
                    <mxGeometry y="60" width="140" height="30" as="geometry"/>
                </mxCell>
                <mxCell id="ptqmkXSqPBtZJswI_MHi-46" style="edgeStyle=orthogonalEdgeStyle;rounded=0;orthogonalLoop=1;jettySize=auto;html=1;exitX=0;exitY=0.5;exitDx=0;exitDy=0;entryX=0.5;entryY=0;entryDx=0;entryDy=0;startArrow=ERmany;startFill=0;endArrow=ERone;endFill=0;" parent="1" source="ptqmkXSqPBtZJswI_MHi-44" target="ptqmkXSqPBtZJswI_MHi-10" edge="1">
                    <mxGeometry relative="1" as="geometry"/>
                </mxCell>
                <mxCell id="ptqmkXSqPBtZJswI_MHi-47" style="edgeStyle=orthogonalEdgeStyle;rounded=0;orthogonalLoop=1;jettySize=auto;html=1;exitX=1;exitY=0.5;exitDx=0;exitDy=0;startArrow=ERmany;startFill=0;endArrow=ERone;endFill=0;" parent="1" source="ptqmkXSqPBtZJswI_MHi-44" target="ptqmkXSqPBtZJswI_MHi-1" edge="1">
                    <mxGeometry relative="1" as="geometry"/>
                </mxCell>
                <mxCell id="3" value="&lt;div style=&quot;color: rgb(212 , 212 , 212) ; background-color: rgb(30 , 30 , 30) ; font-family: &amp;#34;menlo&amp;#34; , &amp;#34;monaco&amp;#34; , &amp;#34;courier new&amp;#34; , monospace ; font-weight: normal ; font-size: 12px ; line-height: 18px&quot;&gt;has_many:fovorites→&lt;/div&gt;&lt;div style=&quot;color: rgb(212 , 212 , 212) ; background-color: rgb(30 , 30 , 30) ; font-family: &amp;#34;menlo&amp;#34; , &amp;#34;monaco&amp;#34; , &amp;#34;courier new&amp;#34; , monospace ; font-weight: normal ; font-size: 12px ; line-height: 18px&quot;&gt;↓belongs_to:items&lt;/div&gt;" style="text;whiteSpace=wrap;html=1;" parent="1" vertex="1">
                    <mxGeometry x="290" y="90" width="140" height="60" as="geometry"/>
                </mxCell>
                <mxCell id="5" value="&lt;div style=&quot;color: rgb(212 , 212 , 212) ; background-color: rgb(30 , 30 , 30) ; font-family: &amp;#34;menlo&amp;#34; , &amp;#34;monaco&amp;#34; , &amp;#34;courier new&amp;#34; , monospace ; font-weight: normal ; font-size: 12px ; line-height: 18px&quot;&gt;←has_many:fovorites&lt;/div&gt;&lt;div style=&quot;color: rgb(212 , 212 , 212) ; background-color: rgb(30 , 30 , 30) ; font-family: &amp;#34;menlo&amp;#34; , &amp;#34;monaco&amp;#34; , &amp;#34;courier new&amp;#34; , monospace ; font-weight: normal ; font-size: 12px ; line-height: 18px&quot;&gt;belongs_to:users↓&lt;/div&gt;" style="text;whiteSpace=wrap;html=1;" parent="1" vertex="1">
                    <mxGeometry x="600" y="90" width="150" height="60" as="geometry"/>
                </mxCell>
                <mxCell id="4" value="&lt;div style=&quot;color: rgb(212 , 212 , 212) ; background-color: rgb(30 , 30 , 30) ; font-family: &amp;#34;menlo&amp;#34; , &amp;#34;monaco&amp;#34; , &amp;#34;courier new&amp;#34; , monospace ; font-weight: normal ; font-size: 12px ; line-height: 18px&quot;&gt;&lt;div&gt;&lt;span style=&quot;color: #d4d4d4&quot;&gt;←has_many :items&lt;/span&gt;&lt;/div&gt;&lt;div&gt;belongs_to:users→&lt;/div&gt;&lt;/div&gt;" style="text;whiteSpace=wrap;html=1;rotation=0;" parent="1" vertex="1">
                    <mxGeometry x="440" y="290" width="130" height="40" as="geometry"/>
                </mxCell>
                <mxCell id="6" value="" style="edgeStyle=orthogonalEdgeStyle;rounded=0;orthogonalLoop=1;jettySize=auto;html=1;exitX=1;exitY=0.5;exitDx=0;exitDy=0;startArrow=ERmany;startFill=0;endArrow=none;endFill=0;" parent="1" source="ptqmkXSqPBtZJswI_MHi-14" edge="1">
                    <mxGeometry relative="1" as="geometry">
                        <mxPoint x="420" y="455" as="sourcePoint"/>
                        <mxPoint x="510" y="350" as="targetPoint"/>
                    </mxGeometry>
                </mxCell>
            </root>
        </mxGraphModel>
    </diagram>
    <diagram id="VGxfxH78K4xPs3LMtBdk" name="ページ1">
        <mxGraphModel dx="879" dy="560" grid="1" gridSize="10" guides="1" tooltips="1" connect="1" arrows="0" fold="1" page="1" pageScale="1" pageWidth="1169" pageHeight="827" math="0" shadow="0">
            <root>
                <mxCell id="0"/>
                <mxCell id="1" parent="0"/>
                <mxCell id="t6kEmooJeN84c-hWatnM-10" style="edgeStyle=orthogonalEdgeStyle;rounded=0;orthogonalLoop=1;jettySize=auto;html=1;startArrow=none;startFill=0;endArrow=none;endFill=0;" parent="1" source="t6kEmooJeN84c-hWatnM-1" edge="1">
                    <mxGeometry relative="1" as="geometry">
                        <mxPoint x="269.9999999999999" y="79.69230769230762" as="targetPoint"/>
                    </mxGeometry>
                </mxCell>
                <mxCell id="t6kEmooJeN84c-hWatnM-11" style="edgeStyle=orthogonalEdgeStyle;rounded=0;orthogonalLoop=1;jettySize=auto;html=1;exitX=1;exitY=0.5;exitDx=0;exitDy=0;entryX=0;entryY=0.5;entryDx=0;entryDy=0;startArrow=none;startFill=0;endArrow=none;endFill=0;" parent="1" source="t6kEmooJeN84c-hWatnM-1" target="t6kEmooJeN84c-hWatnM-3" edge="1">
                    <mxGeometry relative="1" as="geometry"/>
                </mxCell>
                <mxCell id="t6kEmooJeN84c-hWatnM-12" style="edgeStyle=orthogonalEdgeStyle;rounded=0;orthogonalLoop=1;jettySize=auto;html=1;exitX=1;exitY=0.5;exitDx=0;exitDy=0;entryX=0;entryY=0.5;entryDx=0;entryDy=0;startArrow=none;startFill=0;endArrow=none;endFill=0;" parent="1" source="t6kEmooJeN84c-hWatnM-1" target="t6kEmooJeN84c-hWatnM-4" edge="1">
                    <mxGeometry relative="1" as="geometry">
                        <Array as="points">
                            <mxPoint x="200" y="80"/>
                            <mxPoint x="200" y="230"/>
                        </Array>
                    </mxGeometry>
                </mxCell>
                <mxCell id="t6kEmooJeN84c-hWatnM-18" style="edgeStyle=orthogonalEdgeStyle;rounded=0;orthogonalLoop=1;jettySize=auto;html=1;exitX=1;exitY=0.5;exitDx=0;exitDy=0;entryX=0;entryY=0.75;entryDx=0;entryDy=0;startArrow=none;startFill=0;endArrow=none;endFill=0;" parent="1" source="t6kEmooJeN84c-hWatnM-1" target="t6kEmooJeN84c-hWatnM-7" edge="1">
                    <mxGeometry relative="1" as="geometry"/>
                </mxCell>
                <mxCell id="t6kEmooJeN84c-hWatnM-19" style="edgeStyle=orthogonalEdgeStyle;rounded=0;orthogonalLoop=1;jettySize=auto;html=1;exitX=1;exitY=0.5;exitDx=0;exitDy=0;entryX=0;entryY=0.5;entryDx=0;entryDy=0;startArrow=none;startFill=0;endArrow=none;endFill=0;" parent="1" source="t6kEmooJeN84c-hWatnM-1" target="t6kEmooJeN84c-hWatnM-5" edge="1">
                    <mxGeometry relative="1" as="geometry"/>
                </mxCell>
                <mxCell id="t6kEmooJeN84c-hWatnM-26" style="edgeStyle=orthogonalEdgeStyle;rounded=0;orthogonalLoop=1;jettySize=auto;html=1;exitX=1;exitY=0.5;exitDx=0;exitDy=0;entryX=0;entryY=0.5;entryDx=0;entryDy=0;startArrow=none;startFill=0;endArrow=none;endFill=0;" parent="1" source="t6kEmooJeN84c-hWatnM-1" target="t6kEmooJeN84c-hWatnM-24" edge="1">
                    <mxGeometry relative="1" as="geometry"/>
                </mxCell>
                <mxCell id="t6kEmooJeN84c-hWatnM-1" value="トップページ" style="rounded=0;whiteSpace=wrap;html=1;" parent="1" vertex="1">
                    <mxGeometry x="30" y="60" width="140" height="40" as="geometry"/>
                </mxCell>
                <mxCell id="t6kEmooJeN84c-hWatnM-2" value="ユーザーログイン" style="rounded=0;whiteSpace=wrap;html=1;" parent="1" vertex="1">
                    <mxGeometry x="230" y="60" width="140" height="40" as="geometry"/>
                </mxCell>
                <mxCell id="t6kEmooJeN84c-hWatnM-3" value="ユーザー新規登録ページ" style="rounded=0;whiteSpace=wrap;html=1;" parent="1" vertex="1">
                    <mxGeometry x="230" y="130" width="140" height="40" as="geometry"/>
                </mxCell>
                <mxCell id="t6kEmooJeN84c-hWatnM-8" style="edgeStyle=orthogonalEdgeStyle;rounded=0;orthogonalLoop=1;jettySize=auto;html=1;exitX=1;exitY=0.5;exitDx=0;exitDy=0;entryX=0;entryY=0.5;entryDx=0;entryDy=0;startArrow=none;startFill=0;endArrow=none;endFill=0;" parent="1" source="t6kEmooJeN84c-hWatnM-4" target="t6kEmooJeN84c-hWatnM-6" edge="1">
                    <mxGeometry relative="1" as="geometry"/>
                </mxCell>
                <mxCell id="t6kEmooJeN84c-hWatnM-4" value="地方区分ページ" style="rounded=0;whiteSpace=wrap;html=1;" parent="1" vertex="1">
                    <mxGeometry x="230" y="210" width="140" height="40" as="geometry"/>
                </mxCell>
                <mxCell id="t6kEmooJeN84c-hWatnM-5" value="お気に入り一覧ページ" style="rounded=0;whiteSpace=wrap;html=1;" parent="1" vertex="1">
                    <mxGeometry x="230" y="370" width="140" height="40" as="geometry"/>
                </mxCell>
                <mxCell id="t6kEmooJeN84c-hWatnM-20" style="edgeStyle=orthogonalEdgeStyle;rounded=0;orthogonalLoop=1;jettySize=auto;html=1;exitX=1;exitY=0.5;exitDx=0;exitDy=0;entryX=0;entryY=0.5;entryDx=0;entryDy=0;startArrow=none;startFill=0;endArrow=none;endFill=0;" parent="1" source="t6kEmooJeN84c-hWatnM-6" target="t6kEmooJeN84c-hWatnM-14" edge="1">
                    <mxGeometry relative="1" as="geometry"/>
                </mxCell>
                <mxCell id="t6kEmooJeN84c-hWatnM-6" value="各都道府県ページ&lt;br&gt;" style="rounded=0;whiteSpace=wrap;html=1;" parent="1" vertex="1">
                    <mxGeometry x="410" y="210" width="140" height="40" as="geometry"/>
                </mxCell>
                <mxCell id="t6kEmooJeN84c-hWatnM-7" value="全国一覧表示ページ" style="rounded=0;whiteSpace=wrap;html=1;" parent="1" vertex="1">
                    <mxGeometry x="230" y="290" width="140" height="40" as="geometry"/>
                </mxCell>
                <mxCell id="t6kEmooJeN84c-hWatnM-21" style="edgeStyle=orthogonalEdgeStyle;rounded=0;orthogonalLoop=1;jettySize=auto;html=1;exitX=1;exitY=0.5;exitDx=0;exitDy=0;entryX=0;entryY=0.5;entryDx=0;entryDy=0;startArrow=none;startFill=0;endArrow=none;endFill=0;" parent="1" source="t6kEmooJeN84c-hWatnM-14" target="t6kEmooJeN84c-hWatnM-13" edge="1">
                    <mxGeometry relative="1" as="geometry"/>
                </mxCell>
                <mxCell id="t6kEmooJeN84c-hWatnM-14" value="各都道府県&lt;br&gt;商品一覧表示ページ" style="rounded=0;whiteSpace=wrap;html=1;" parent="1" vertex="1">
                    <mxGeometry x="590" y="210" width="140" height="40" as="geometry"/>
                </mxCell>
                <mxCell id="t6kEmooJeN84c-hWatnM-22" style="edgeStyle=orthogonalEdgeStyle;rounded=0;orthogonalLoop=1;jettySize=auto;html=1;exitX=1;exitY=0.5;exitDx=0;exitDy=0;entryX=0;entryY=0.5;entryDx=0;entryDy=0;startArrow=none;startFill=0;endArrow=none;endFill=0;" parent="1" source="t6kEmooJeN84c-hWatnM-13" target="t6kEmooJeN84c-hWatnM-16" edge="1">
                    <mxGeometry relative="1" as="geometry"/>
                </mxCell>
                <mxCell id="t6kEmooJeN84c-hWatnM-23" style="edgeStyle=orthogonalEdgeStyle;rounded=0;orthogonalLoop=1;jettySize=auto;html=1;exitX=1;exitY=0.5;exitDx=0;exitDy=0;entryX=0;entryY=0.5;entryDx=0;entryDy=0;startArrow=none;startFill=0;endArrow=none;endFill=0;" parent="1" source="t6kEmooJeN84c-hWatnM-13" target="t6kEmooJeN84c-hWatnM-17" edge="1">
                    <mxGeometry relative="1" as="geometry"/>
                </mxCell>
                <mxCell id="t6kEmooJeN84c-hWatnM-13" value="商品詳細ページ" style="rounded=0;whiteSpace=wrap;html=1;" parent="1" vertex="1">
                    <mxGeometry x="780" y="210" width="140" height="40" as="geometry"/>
                </mxCell>
                <mxCell id="t6kEmooJeN84c-hWatnM-16" value="編集ページ" style="rounded=0;whiteSpace=wrap;html=1;" parent="1" vertex="1">
                    <mxGeometry x="980" y="160" width="140" height="40" as="geometry"/>
                </mxCell>
                <mxCell id="t6kEmooJeN84c-hWatnM-17" value="削除完了ページ" style="rounded=0;whiteSpace=wrap;html=1;" parent="1" vertex="1">
                    <mxGeometry x="980" y="240" width="140" height="40" as="geometry"/>
                </mxCell>
                <mxCell id="t6kEmooJeN84c-hWatnM-24" value="新規投稿ページ" style="rounded=0;whiteSpace=wrap;html=1;" parent="1" vertex="1">
                    <mxGeometry x="230" y="450" width="140" height="40" as="geometry"/>
                </mxCell>
                <mxCell id="7Zvbi1hQYl-7nTapI42m-2" value="商品一覧表示ページ" style="rounded=0;whiteSpace=wrap;html=1;" parent="1" vertex="1">
                    <mxGeometry x="590" y="290" width="140" height="40" as="geometry"/>
                </mxCell>
                <mxCell id="7Zvbi1hQYl-7nTapI42m-7" value="" style="endArrow=none;html=1;exitX=1;exitY=0.5;exitDx=0;exitDy=0;entryX=0;entryY=0.5;entryDx=0;entryDy=0;" parent="1" source="t6kEmooJeN84c-hWatnM-7" target="7Zvbi1hQYl-7nTapI42m-2" edge="1">
                    <mxGeometry width="50" height="50" relative="1" as="geometry">
                        <mxPoint x="540" y="300" as="sourcePoint"/>
                        <mxPoint x="590" y="250" as="targetPoint"/>
                    </mxGeometry>
                </mxCell>
                <mxCell id="7Zvbi1hQYl-7nTapI42m-8" value="" style="endArrow=none;html=1;exitX=1;exitY=0.5;exitDx=0;exitDy=0;" parent="1" source="7Zvbi1hQYl-7nTapI42m-2" edge="1">
                    <mxGeometry width="50" height="50" relative="1" as="geometry">
                        <mxPoint x="540" y="300" as="sourcePoint"/>
                        <mxPoint x="780" y="230" as="targetPoint"/>
                    </mxGeometry>
                </mxCell>
                <mxCell id="7Zvbi1hQYl-7nTapI42m-9" value="お気に入り&lt;br&gt;一覧表示ページ" style="rounded=0;whiteSpace=wrap;html=1;" parent="1" vertex="1">
                    <mxGeometry x="590" y="373" width="140" height="40" as="geometry"/>
                </mxCell>
                <mxCell id="7Zvbi1hQYl-7nTapI42m-10" value="" style="endArrow=none;html=1;exitX=1;exitY=0.5;exitDx=0;exitDy=0;" parent="1" source="7Zvbi1hQYl-7nTapI42m-9" edge="1">
                    <mxGeometry width="50" height="50" relative="1" as="geometry">
                        <mxPoint x="540" y="300" as="sourcePoint"/>
                        <mxPoint x="780" y="230" as="targetPoint"/>
                    </mxGeometry>
                </mxCell>
                <mxCell id="7Zvbi1hQYl-7nTapI42m-11" value="" style="endArrow=none;html=1;exitX=1;exitY=0.5;exitDx=0;exitDy=0;" parent="1" source="t6kEmooJeN84c-hWatnM-5" edge="1">
                    <mxGeometry width="50" height="50" relative="1" as="geometry">
                        <mxPoint x="540" y="300" as="sourcePoint"/>
                        <mxPoint x="590" y="390" as="targetPoint"/>
                    </mxGeometry>
                </mxCell>
            </root>
        </mxGraphModel>
    </diagram>
</mxfile>